# Blender v2.53 (sub 0) OBJ File: mine.blend
# www.blender.org
mtllib mine.mtl
o Cube_Cube.001
v -1.120797 2.431285 -0.000000
v 1.120797 2.431285 -0.000000
v 0.000000 2.350667 -1.310140
v 0.000000 2.350667 1.310140
v -0.908632 2.374666 -1.244190
v -0.908632 2.374666 1.244190
v 0.908632 2.374666 -1.244190
v 0.908632 2.374666 1.244190
v -1.292402 -0.036964 0.000000
v 1.292402 -0.036964 0.000000
v -1.290074 -0.026820 -1.295153
v -1.290074 -0.026820 1.295153
v 1.290074 -0.026820 -1.295153
v 1.290074 -0.026820 1.295153
v 0.000000 -0.011659 -1.361103
v 0.000000 -0.011659 1.361103
v 0.000000 -0.007808 0.000000
v -0.501145 1.423494 -1.460211
v -0.501145 1.423494 1.460210
v 0.501145 1.423494 -1.460211
v 0.501145 1.423494 1.460210
v 0.000000 1.426764 -1.474439
v 0.000000 1.426764 1.474439
v -0.418852 1.984013 -1.449216
v -0.418852 1.984014 1.449216
v 0.418852 1.984013 -1.449216
v 0.418852 1.984014 1.449216
v 0.000000 1.978836 -1.463444
v 0.000000 1.978836 1.463444
v -0.449696 2.267142 -2.447980
v -0.449696 2.267142 2.447980
v 0.449696 2.267142 -2.447980
v 0.449696 2.267142 2.447980
v 0.000000 2.261965 -2.462208
v 0.000000 2.261965 2.462208
v -0.531989 1.447333 -2.458975
v -0.531989 1.447333 2.458975
v 0.531989 1.447333 -2.458975
v 0.531989 1.447333 2.458975
v 0.000000 1.450604 -2.473203
v 0.000000 1.450604 2.473203
v -0.554295 1.071501 -3.229697
v -0.554295 1.071501 3.229697
v 0.554295 1.071501 -3.229697
v 0.554295 1.071501 3.229697
v 0.000000 1.074772 -3.243925
v 0.000000 1.074772 3.243925
v -0.472001 1.589603 -3.595466
v -0.472001 1.589604 3.595466
v 0.472001 1.589603 -3.595466
v 0.472001 1.589604 3.595466
v 0.000000 1.584426 -3.609694
v 0.000000 1.584426 3.609694
v 0.000000 0.271051 -3.273836
v 0.000000 0.271052 3.273836
v -0.136651 0.276229 -3.259607
v -0.136651 0.276229 3.259607
v 0.136651 0.276229 -3.259607
v 0.136651 0.276229 3.259607
v -0.218944 0.531758 -3.110817
v -0.218944 0.531758 3.110817
v 0.218944 0.531758 -3.110817
v 0.218944 0.531758 3.110817
v 0.000000 0.535029 -3.125046
v 0.000000 0.535029 3.125046
v 0.000000 -0.049489 -2.856921
v 0.000000 -0.049489 2.856921
v -1.459077 1.629650 -0.000000
v 1.459077 1.629650 -0.000000
v -1.458651 1.631509 -0.506037
v -1.458651 1.631509 0.506037
v 1.458651 1.631509 -0.506037
v 1.458651 1.631509 0.506037
v -1.388780 2.071401 -0.496702
v -1.388780 2.071401 0.496702
v 1.388780 2.071401 -0.496702
v 1.388780 2.071401 0.496702
v -1.427643 2.093764 -0.000000
v 1.427643 2.093764 -0.000000
v -2.218223 2.308790 -0.000000
v 2.218223 2.308790 -0.000000
v -2.158204 2.274253 -0.670966
v -2.158204 2.274253 0.670966
v 2.158204 2.274253 -0.670966
v 2.158204 2.274253 0.670966
v -2.266109 1.540450 -0.685383
v -2.266109 1.540450 0.685383
v 2.266109 1.540450 -0.685383
v 2.266109 1.540450 0.685383
v -2.266768 1.537580 -0.000000
v 2.266768 1.537580 -0.000000
v -2.836799 1.067202 -0.731610
v -2.836799 1.067202 0.731610
v 2.836799 1.067202 -0.731610
v 2.836799 1.067202 0.731610
v -2.837458 1.064333 -0.000000
v 2.837458 1.064333 -0.000000
v -2.833399 1.746551 -0.717193
v -2.833399 1.746551 0.717193
v 2.833399 1.746551 -0.717193
v 2.833399 1.746551 0.717193
v -2.893418 1.781088 -0.000000
v 2.893418 1.781088 -0.000000
v -3.259192 0.420460 -0.272688
v -3.259192 0.420460 0.272688
v 3.259192 0.420460 -0.272688
v 3.259192 0.420460 0.272688
v -3.319211 0.454997 -0.000000
v 3.319211 0.454997 -0.000000
v -3.106571 0.651158 -0.287105
v -3.106571 0.651158 0.287105
v 3.106571 0.651158 -0.287105
v 3.106571 0.651158 0.287105
v -3.107230 0.648289 -0.000000
v 3.107230 0.648289 -0.000000
v -2.755148 -0.113778 0.000000
v 2.755148 -0.113778 0.000000
v -1.102546 2.637339 -0.000000
v 1.102546 2.637339 -0.000000
v -0.895374 2.582052 -1.247751
v -0.895374 2.582052 1.247751
v 0.895374 2.582052 -1.247751
v 0.895374 2.582052 1.247751
v 0.000000 2.558618 -1.312149
v 0.000000 2.558618 1.312148
v -0.803828 2.569430 -1.083787
v -0.803828 2.569430 1.083786
v 0.803828 2.569430 -1.083787
v 0.803828 2.569430 1.083786
v 0.000000 2.551944 -1.131839
v 0.000000 2.551944 1.131839
v -0.958416 2.610684 -0.000000
v 0.958416 2.610684 -0.000000
v -0.487257 2.580938 -0.470157
v -0.487257 2.580938 0.470157
v 0.487257 2.580938 -0.470157
v 0.487257 2.580938 0.470157
v -0.477067 2.576715 -0.000000
v 0.477067 2.576715 -0.000000
v 0.000000 2.566969 -0.503356
v 0.000000 2.566969 0.503356
v -0.477507 2.665251 -0.479447
v -0.477507 2.665251 0.479447
v 0.477507 2.665251 -0.479447
v 0.477507 2.665251 0.479447
v 0.000000 2.671650 -0.512646
v 0.000000 2.671650 0.512646
v -0.467317 2.667992 -0.000000
v 0.467317 2.667992 -0.000000
v 0.000000 2.753375 -0.000000
vn 0.017098 -0.999851 -0.002354
vn 0.017098 -0.999851 0.002354
vn -0.017098 -0.999851 -0.002354
vn -0.017098 -0.999851 0.002354
vn -0.043696 -0.084005 -0.995507
vn -0.043696 -0.084005 0.995507
vn 0.043696 -0.084005 -0.995507
vn 0.043696 -0.084005 0.995507
vn -0.331585 0.071591 -0.940705
vn -0.331585 0.071591 0.940705
vn 0.331585 0.071591 -0.940705
vn 0.331585 0.071591 0.940705
vn -0.046481 0.400254 -0.915225
vn -0.046481 0.400254 0.915225
vn 0.046481 0.400254 -0.915225
vn 0.046481 0.400254 0.915225
vn 0.020393 0.961972 0.272384
vn 0.020393 0.961973 -0.272384
vn -0.020393 0.961972 0.272384
vn -0.020393 0.961973 -0.272384
vn -0.991880 0.117493 0.048687
vn -0.991880 0.117493 -0.048687
vn 0.991880 0.117493 0.048687
vn 0.991880 0.117493 -0.048687
vn 0.005670 -0.999697 -0.023949
vn 0.005670 -0.999697 0.023949
vn -0.005670 -0.999697 -0.023949
vn -0.005670 -0.999697 0.023949
vn 0.016887 -0.898796 0.438041
vn 0.016887 -0.898796 -0.438041
vn -0.016887 -0.898796 0.438041
vn -0.016887 -0.898796 -0.438041
vn -0.992969 0.111972 -0.038395
vn -0.992969 0.111972 0.038395
vn 0.992969 0.111972 -0.038395
vn 0.992969 0.111972 0.038395
vn -0.006022 0.861108 -0.508387
vn -0.006022 0.861108 0.508387
vn 0.006022 0.861108 -0.508387
vn 0.006022 0.861108 0.508387
vn -0.049479 -0.253370 -0.966103
vn -0.049479 -0.253370 0.966103
vn 0.049479 -0.253370 -0.966103
vn 0.049479 -0.253370 0.966103
vn -0.794015 -0.399759 -0.457966
vn -0.794015 -0.399759 0.457966
vn 0.794015 -0.399759 -0.457966
vn 0.794015 -0.399759 0.457966
vn 0.033933 0.225015 0.973764
vn 0.033933 0.225015 -0.973764
vn -0.033933 0.225015 0.973764
vn -0.033933 0.225015 -0.973764
vn 0.052766 0.416357 0.907669
vn 0.052766 0.416357 -0.907669
vn -0.052766 0.416357 0.907669
vn -0.052766 0.416357 -0.907669
vn -0.941693 -0.332666 0.050480
vn -0.941693 -0.332666 -0.050480
vn 0.941693 -0.332666 0.050480
vn 0.941693 -0.332666 -0.050480
vn -0.093095 -0.789331 -0.606869
vn -0.093095 -0.789331 0.606869
vn 0.093095 -0.789331 -0.606869
vn 0.093095 -0.789331 0.606869
vn -0.995004 -0.099807 -0.002186
vn -0.995004 -0.099807 0.002186
vn 0.995004 -0.099807 -0.002186
vn 0.995004 -0.099807 0.002186
vn -0.858270 0.146760 -0.491766
vn -0.858270 0.146760 0.491766
vn 0.858270 0.146760 -0.491766
vn 0.858270 0.146760 0.491766
vn -0.698521 0.703192 -0.132627
vn -0.698521 0.703192 0.132627
vn 0.698521 0.703192 -0.132627
vn 0.698521 0.703192 0.132627
vn 0.261261 0.964947 -0.024898
vn 0.261261 0.964947 0.024898
vn -0.261261 0.964947 -0.024898
vn -0.261261 0.964947 0.024898
vn 0.217899 -0.013255 -0.975881
vn 0.217899 -0.013255 0.975881
vn -0.217899 -0.013255 -0.975881
vn -0.217899 -0.013255 0.975881
vn 0.113080 -0.993578 -0.003840
vn 0.113080 -0.993578 0.003840
vn -0.113080 -0.993578 -0.003840
vn -0.113080 -0.993578 0.003840
vn 0.638388 -0.769711 -0.002524
vn 0.638388 -0.769711 0.002524
vn -0.638388 -0.769711 -0.002524
vn -0.638388 -0.769711 0.002524
vn 0.061596 0.015511 -0.997981
vn 0.061596 0.015511 0.997981
vn -0.061596 0.015511 -0.997981
vn -0.061596 0.015511 0.997981
vn -0.611227 0.786094 -0.091970
vn -0.611227 0.786094 0.091970
vn 0.611227 0.786094 -0.091970
vn 0.611227 0.786094 0.091970
vn -0.949780 0.282358 -0.134878
vn -0.949780 0.282358 0.134878
vn 0.949780 0.282358 -0.134878
vn 0.949780 0.282358 0.134878
vn -0.610242 -0.153010 -0.777298
vn -0.610242 -0.153010 0.777299
vn 0.610242 -0.153010 -0.777298
vn 0.610242 -0.153010 0.777299
vn 0.838562 -0.544802 -0.001985
vn 0.838562 -0.544802 0.001985
vn -0.838562 -0.544802 -0.001985
vn -0.838562 -0.544802 0.001985
vn 0.907779 0.419402 0.006275
vn 0.907779 0.419402 -0.006275
vn -0.907779 0.419402 0.006275
vn -0.907779 0.419402 -0.006275
vn 0.261501 -0.231555 -0.937016
vn 0.261501 -0.231555 0.937016
vn -0.261501 -0.231555 -0.937016
vn -0.261501 -0.231555 0.937016
vn -0.708449 -0.702579 -0.066946
vn -0.708449 -0.702579 0.066946
vn 0.708449 -0.702579 -0.066946
vn 0.708449 -0.702579 0.066946
vn -0.982926 0.073456 -0.168703
vn -0.982926 0.073456 0.168703
vn 0.982926 0.073456 -0.168703
vn 0.982926 0.073456 0.168703
vn -0.072352 -0.011065 -0.997318
vn -0.072352 -0.011065 0.997318
vn 0.072352 -0.011065 -0.997318
vn 0.072352 -0.011065 0.997318
vn 0.027268 0.998441 0.048709
vn 0.027268 0.998441 -0.048709
vn -0.027268 0.998441 0.048709
vn -0.027268 0.998441 -0.048709
vn 0.173720 0.984698 -0.013819
vn 0.173719 0.984698 0.013819
vn -0.173720 0.984698 -0.013819
vn -0.173719 0.984698 0.013819
vn 0.043326 0.998865 -0.019778
vn 0.043327 0.998865 0.019778
vn -0.043326 0.998865 -0.019778
vn -0.043327 0.998865 0.019778
vn 0.022641 0.999376 -0.027118
vn 0.022641 0.999376 0.027118
vn -0.022641 0.999376 -0.027118
vn -0.022641 0.999376 0.027118
vn -0.069091 -0.094075 -0.993165
vn -0.069091 -0.094075 0.993165
vn 0.069091 -0.094075 -0.993165
vn 0.069091 -0.094075 0.993165
vn -0.993534 0.111479 0.021498
vn -0.993534 0.111479 -0.021498
vn 0.993534 0.111479 0.021498
vn 0.993534 0.111479 -0.021498
vn -0.099253 0.991561 -0.083400
vn -0.099253 0.991561 0.083400
vn 0.099253 0.991561 -0.083400
vn 0.099253 0.991561 0.083400
usemtl (null)
s off
f 11//1 15//1 17//1 9//1
f 17//2 16//2 12//2 9//2
f 17//3 15//3 13//3 10//3
f 14//4 16//4 17//4 10//4
f 15//5 11//5 18//5 22//5
f 19//6 12//6 16//6 23//6
f 20//7 13//7 15//7 22//7
f 16//8 14//8 21//8 23//8
f 11//9 5//9 24//9 18//9
f 25//10 6//10 12//10 19//10
f 26//11 7//11 13//11 20//11
f 14//12 8//12 27//12 21//12
f 5//13 3//13 28//13 24//13
f 29//14 4//14 6//14 25//14
f 28//15 3//15 7//15 26//15
f 8//16 4//16 29//16 27//16
f 24//17 28//17 34//17 30//17
f 35//18 29//18 25//18 31//18
f 34//19 28//19 26//19 32//19
f 27//20 29//20 35//20 33//20
f 18//21 24//21 30//21 36//21
f 31//22 25//22 19//22 37//22
f 32//23 26//23 20//23 38//23
f 21//24 27//24 33//24 39//24
f 22//25 18//25 36//25 40//25
f 37//26 19//26 23//26 41//26
f 38//27 20//27 22//27 40//27
f 23//28 21//28 39//28 41//28
f 40//29 36//29 42//29 46//29
f 43//30 37//30 41//30 47//30
f 44//31 38//31 40//31 46//31
f 41//32 39//32 45//32 47//32
f 36//33 30//33 48//33 42//33
f 49//34 31//34 37//34 43//34
f 50//35 32//35 38//35 44//35
f 39//36 33//36 51//36 45//36
f 30//37 34//37 52//37 48//37
f 53//38 35//38 31//38 49//38
f 52//39 34//39 32//39 50//39
f 33//40 35//40 53//40 51//40
f 48//41 52//41 54//41 56//41
f 55//42 53//42 49//42 57//42
f 54//43 52//43 50//43 58//43
f 51//44 53//44 55//44 59//44
f 42//45 48//45 56//45 60//45
f 57//46 49//46 43//46 61//46
f 58//47 50//47 44//47 62//47
f 45//48 51//48 59//48 63//48
f 46//49 42//49 60//49 64//49
f 61//50 43//50 47//50 65//50
f 62//51 44//51 46//51 64//51
f 47//52 45//52 63//52 65//52
f 64//53 60//53 66//53
f 67//54 61//54 65//54
f 66//55 62//55 64//55
f 65//56 63//56 67//56
f 60//57 56//57 66//57
f 67//58 57//58 61//58
f 66//59 58//59 62//59
f 63//60 59//60 67//60
f 56//61 54//61 66//61
f 67//62 55//62 57//62
f 66//63 54//63 58//63
f 59//64 55//64 67//64
f 11//65 9//65 68//65 70//65
f 68//66 9//66 12//66 71//66
f 69//67 10//67 13//67 72//67
f 14//68 10//68 69//68 73//68
f 5//69 11//69 70//69 74//69
f 71//70 12//70 6//70 75//70
f 72//71 13//71 7//71 76//71
f 8//72 14//72 73//72 77//72
f 1//73 5//73 74//73 78//73
f 1//74 78//74 75//74 6//74
f 76//75 7//75 2//75 79//75
f 2//76 8//76 77//76 79//76
f 78//77 74//77 82//77 80//77
f 83//78 75//78 78//78 80//78
f 84//79 76//79 79//79 81//79
f 79//80 77//80 85//80 81//80
f 74//81 70//81 86//81 82//81
f 87//82 71//82 75//82 83//82
f 88//83 72//83 76//83 84//83
f 77//84 73//84 89//84 85//84
f 70//85 68//85 90//85 86//85
f 90//86 68//86 71//86 87//86
f 91//87 69//87 72//87 88//87
f 73//88 69//88 91//88 89//88
f 86//89 90//89 96//89 92//89
f 96//90 90//90 87//90 93//90
f 97//91 91//91 88//91 94//91
f 89//92 91//92 97//92 95//92
f 82//93 86//93 92//93 98//93
f 93//94 87//94 83//94 99//94
f 94//95 88//95 84//95 100//95
f 85//96 89//96 95//96 101//96
f 80//97 82//97 98//97 102//97
f 99//98 83//98 80//98 102//98
f 100//99 84//99 81//99 103//99
f 81//100 85//100 101//100 103//100
f 102//101 98//101 104//101 108//101
f 105//102 99//102 102//102 108//102
f 106//103 100//103 103//103 109//103
f 103//104 101//104 107//104 109//104
f 98//105 92//105 110//105 104//105
f 111//106 93//106 99//106 105//106
f 112//107 94//107 100//107 106//107
f 101//108 95//108 113//108 107//108
f 92//109 96//109 114//109 110//109
f 114//110 96//110 93//110 111//110
f 115//111 97//111 94//111 112//111
f 95//112 97//112 115//112 113//112
f 110//113 114//113 116//113
f 116//114 114//114 111//114
f 117//115 115//115 112//115
f 113//116 115//116 117//116
f 104//117 110//117 116//117
f 116//118 111//118 105//118
f 117//119 112//119 106//119
f 107//120 113//120 117//120
f 108//121 104//121 116//121
f 116//122 105//122 108//122
f 117//123 106//123 109//123
f 109//124 107//124 117//124
f 5//125 1//125 118//125 120//125
f 118//126 1//126 6//126 121//126
f 119//127 2//127 7//127 122//127
f 8//128 2//128 119//128 123//128
f 3//129 5//129 120//129 124//129
f 121//130 6//130 4//130 125//130
f 122//131 7//131 3//131 124//131
f 4//132 8//132 123//132 125//132
f 124//133 120//133 126//133 130//133
f 127//134 121//134 125//134 131//134
f 128//135 122//135 124//135 130//135
f 125//136 123//136 129//136 131//136
f 120//137 118//137 132//137 126//137
f 132//138 118//138 121//138 127//138
f 133//139 119//139 122//139 128//139
f 123//140 119//140 133//140 129//140
f 126//141 132//141 138//141 134//141
f 138//142 132//142 127//142 135//142
f 139//143 133//143 128//143 136//143
f 129//144 133//144 139//144 137//144
f 130//145 126//145 134//145 140//145
f 135//146 127//146 131//146 141//146
f 136//147 128//147 130//147 140//147
f 131//148 129//148 137//148 141//148
f 140//149 134//149 142//149 146//149
f 143//150 135//150 141//150 147//150
f 144//151 136//151 140//151 146//151
f 141//152 137//152 145//152 147//152
f 134//153 138//153 148//153 142//153
f 148//154 138//154 135//154 143//154
f 149//155 139//155 136//155 144//155
f 137//156 139//156 149//156 145//156
f 148//157 150//157 146//157 142//157
f 147//158 150//158 148//158 143//158
f 146//159 150//159 149//159 144//159
f 149//160 150//160 147//160 145//160
