# Blender v2.53 (sub 0) OBJ File: mine.blend
# www.blender.org
mtllib minigun.mtl
o Cube_Cube.001
v 0.000000 0.052505 0.016862
v 0.000000 0.125552 0.031124
v -4.261279 0.092754 -0.006234
v 4.261279 0.092754 -0.006234
v 0.000000 0.150197 -0.082317
v 0.000000 0.077150 -0.096580
vn 0.007129 0.191625 -0.981442
vn -0.007129 0.191625 -0.981442
vn 0.009382 -0.977162 -0.212290
vn -0.009382 -0.977162 -0.212290
vn -1.000000 0.000000 0.000000
vn 0.008079 0.977173 0.212293
vn -0.008079 0.977173 0.212293
vn 0.020103 -0.191591 0.981269
vn -0.020103 -0.191591 0.981269
usemtl (null)
s off
f 2//1 1//1 3//1
f 4//2 1//2 2//2
f 2//3 3//3 5//3
f 5//4 4//4 2//4
f 1//5 2//5 5//5 6//5
f 3//6 1//6 6//6
f 6//7 1//7 4//7
f 3//8 6//8 5//8
f 5//9 6//9 4//9
