# Blender v2.53 (sub 0) OBJ File: missile.blend
# www.blender.org
mtllib missile.mtl
o Cube_Cube.001
v -0.048168 -0.032180 0.161092
v -0.048168 0.094062 0.161092
v -0.048168 -0.032180 -0.161092
v -0.048168 0.094062 -0.161092
v -0.043694 0.030941 0.162775
v -0.043694 0.030941 -0.162775
v -2.235489 0.030941 -0.000000
v -0.040174 0.030941 -0.000000
v -0.044648 -0.077949 0.000000
v -0.044648 0.139831 -0.000000
v 1.208896 -0.174854 0.000000
v 1.208896 0.236736 -0.000000
v 1.213370 0.030941 -0.000000
v 1.207614 0.030941 0.317456
v 1.207614 0.030941 -0.317456
v 2.496846 0.026122 0.099842
v 2.496846 0.035760 0.099842
v 2.496846 0.026122 -0.099842
v 2.496846 0.035760 -0.099842
v 2.498217 0.003589 0.109484
v 2.498217 0.058293 0.109484
v 2.498217 0.003589 -0.109484
v 2.498217 0.058293 -0.109484
v 2.506210 0.030941 -0.000000
v 2.501736 -0.076248 0.000000
v 2.501736 0.138130 -0.000000
v 2.254249 -0.237396 0.255520
v 2.254249 0.299278 0.255520
v 2.254249 -0.237396 -0.255520
v 2.254249 0.299278 -0.255520
v 2.256453 -0.236874 0.047473
v 2.256453 0.298756 0.047473
v 2.256453 -0.236874 -0.047473
v 2.256453 0.298756 -0.047473
v 1.445959 -0.222863 0.125535
v 1.445959 0.284745 0.125535
v 1.445959 -0.222863 -0.125535
v 1.445959 0.284745 -0.125535
v 3.783587 -0.546356 0.124796
v 3.783587 0.608238 0.124796
v 3.783587 -0.546356 -0.124796
v 3.783587 0.608238 -0.124796
v 4.591878 -0.457487 0.254782
v 4.591878 0.519369 0.254782
v 4.591878 -0.457487 -0.254782
v 4.591878 0.519369 -0.254782
v 4.594081 -0.412793 0.153791
v 4.594081 0.474675 0.153791
v 4.594081 -0.412793 -0.153791
v 4.594081 0.474675 -0.153791
v 2.064205 -0.055230 0.565756
v 2.064205 0.117112 0.565756
v 2.064205 -0.055230 -0.565756
v 2.064205 0.117112 -0.565756
v 2.737791 -0.065821 0.649292
v 2.737791 0.127703 0.649292
v 2.737791 -0.065821 -0.649292
v 2.737791 0.127703 -0.649292
v 2.741145 0.025642 0.109198
v 2.741145 0.036240 0.109198
v 2.741145 0.025642 -0.109198
v 2.741145 0.036240 -0.109198
v 2.283533 -0.019667 0.066691
v 2.283533 0.081549 0.066691
v 2.283533 -0.019667 -0.066691
v 2.283533 0.081549 -0.066691
v 2.284132 -0.033275 0.048030
v 2.284132 0.095157 0.048030
v 2.284132 -0.033275 -0.048030
v 2.284132 0.095157 -0.048030
v 2.284895 -0.017260 0.048030
v 2.284895 0.079142 0.048030
v 2.284895 -0.017260 -0.048030
v 2.284895 0.079142 -0.048030
v 2.283299 -0.015827 0.065048
v 2.283299 0.077709 0.065048
v 2.283299 -0.015827 -0.065048
v 2.283299 0.077709 -0.065048
vn 0.074045 0.021338 -0.997027
vn 0.074045 -0.021338 -0.997027
vn 0.074045 0.021338 0.997027
vn 0.074045 -0.021338 0.997027
vn 0.000000 -1.000000 0.000000
vn 0.047769 0.961105 -0.272021
vn 0.047769 -0.961105 -0.272021
vn 0.047769 0.961105 0.272021
vn 0.047769 -0.961105 0.272021
vn 0.000000 0.000000 1.000000
vn 0.040860 0.884579 -0.464597
vn 0.040860 -0.884579 -0.464597
vn 0.040860 0.884579 0.464597
vn 0.040860 -0.884579 0.464597
vn 0.122663 0.017766 -0.992289
vn 0.122663 -0.017766 -0.992289
vn 0.122663 0.017766 0.992289
vn 0.122663 -0.017766 0.992289
vn -0.002848 -0.999928 -0.011651
vn -0.002848 0.999928 -0.011651
vn -0.002848 -0.999928 0.011651
vn -0.002848 0.999928 0.011651
vn -0.666919 0.720004 -0.191868
vn -0.666919 -0.720004 -0.191868
vn -0.666919 0.720004 0.191868
vn -0.666919 -0.720004 0.191868
vn 0.002900 0.638251 0.769823
vn 0.002900 -0.638250 0.769823
vn 0.002900 0.638250 -0.769823
vn 0.002900 -0.638251 -0.769823
vn -0.035124 0.092679 -0.995076
vn -0.035124 -0.092679 -0.995076
vn -0.035124 0.092679 0.995076
vn -0.035124 -0.092679 0.995076
vn 0.416002 0.763821 -0.493477
vn 0.416002 -0.763821 -0.493477
vn 0.416002 0.763821 0.493477
vn 0.416002 -0.763821 0.493477
vn 0.081433 0.702314 -0.707194
vn 0.081433 -0.702314 -0.707194
vn 0.081433 0.702314 0.707194
vn 0.081433 -0.702314 0.707194
vn 0.008333 0.280894 0.959702
vn 0.008333 -0.280894 0.959703
vn 0.008333 0.280894 -0.959703
vn 0.008333 -0.280894 -0.959702
vn -0.080243 -0.986110 -0.145426
vn -0.080243 0.986110 -0.145426
vn -0.080243 -0.986110 0.145426
vn -0.080243 0.986110 0.145426
vn -0.163071 0.903520 0.396308
vn -0.163071 -0.903520 0.396308
vn -0.163071 0.903520 -0.396308
vn -0.163071 -0.903520 -0.396308
vn 0.048755 0.983682 0.173185
vn 0.048755 -0.983682 0.173185
vn 0.048755 0.983682 -0.173185
vn 0.048755 -0.983682 -0.173185
vn -0.038505 -0.977695 -0.206468
vn -0.038505 0.977695 -0.206468
vn -0.038505 -0.977695 0.206468
vn -0.038505 0.977695 0.206468
vn 0.005029 -0.985913 -0.167184
vn 0.005029 0.985913 -0.167184
vn 0.005029 -0.985913 0.167184
vn 0.005029 0.985913 0.167184
vn -0.024951 0.990065 0.138380
vn -0.024951 -0.990065 0.138380
vn -0.024951 0.990065 -0.138380
vn -0.024951 -0.990065 -0.138380
vn -0.034450 0.391379 0.919584
vn -0.034450 -0.391379 0.919584
vn -0.034450 0.391379 -0.919584
vn -0.034450 -0.391379 -0.919584
vn -0.029726 -0.808087 0.588313
vn -0.029726 0.808087 0.588313
vn -0.029726 -0.808087 -0.588313
vn -0.029726 0.808087 -0.588313
vn -0.213891 0.009092 -0.976815
vn -0.213891 -0.009092 -0.976815
vn -0.213891 0.009092 0.976815
vn -0.213891 -0.009091 0.976815
vn -0.202707 0.979195 0.009363
vn -0.202707 -0.979195 0.009363
vn -0.202707 0.979195 -0.009363
vn -0.202707 -0.979195 -0.009363
vn -0.220056 0.372401 0.901606
vn -0.220056 -0.372401 0.901606
vn -0.220056 0.372401 -0.901606
vn -0.220056 -0.372401 -0.901606
vn -0.997321 0.020780 -0.070139
vn -0.997321 -0.020780 -0.070139
vn -0.997321 0.020780 0.070139
vn -0.997321 -0.020780 0.070139
usemtl (null)
s off
f 5//1 1//1 7//1
f 7//2 2//2 5//2
f 7//3 3//3 6//3
f 6//4 4//4 7//4
f 5//5 7//5 8//5
f 8//5 7//5 6//5
f 7//6 1//6 9//6
f 10//7 2//7 7//7
f 9//8 3//8 7//8
f 7//9 4//9 10//9
f 7//10 9//10 8//10
f 8//10 10//10 7//10
f 9//11 1//11 14//11 11//11
f 14//12 2//12 10//12 12//12
f 15//13 3//13 9//13 11//13
f 10//14 4//14 15//14 12//14
f 8//10 9//10 11//10 13//10
f 12//10 10//10 8//10 13//10
f 5//5 8//5 13//5 14//5
f 13//5 8//5 6//5 15//5
f 1//15 5//15 14//15
f 14//16 5//16 2//16
f 15//17 6//17 3//17
f 4//18 6//18 15//18
f 14//19 13//19 24//19 16//19
f 24//20 13//20 14//20 17//20
f 24//21 13//21 15//21 18//21
f 15//22 13//22 24//22 19//22
f 13//10 11//10 25//10 24//10
f 26//10 12//10 13//10 24//10
f 20//23 25//23 31//23 27//23
f 32//24 26//24 21//24 28//24
f 33//25 25//25 22//25 29//25
f 23//26 26//26 34//26 30//26
f 25//27 11//27 35//27 31//27
f 36//28 12//28 26//28 32//28
f 37//29 11//29 25//29 33//29
f 26//30 12//30 38//30 34//30
f 14//31 20//31 27//31 35//31
f 28//32 21//32 14//32 36//32
f 29//33 22//33 15//33 37//33
f 15//34 23//34 30//34 38//34
f 11//35 14//35 35//35
f 36//36 14//36 12//36
f 37//37 15//37 11//37
f 12//38 15//38 38//38
f 35//39 27//39 43//39 39//39
f 44//40 28//40 36//40 40//40
f 45//41 29//41 37//41 41//41
f 38//42 30//42 46//42 42//42
f 31//43 35//43 39//43 47//43
f 40//44 36//44 32//44 48//44
f 41//45 37//45 33//45 49//45
f 34//46 38//46 42//46 50//46
f 27//47 31//47 47//47 43//47
f 48//48 32//48 28//48 44//48
f 49//49 33//49 29//49 45//49
f 30//50 34//50 50//50 46//50
f 39//51 43//51 47//51
f 48//52 44//52 40//52
f 49//53 45//53 41//53
f 42//54 46//54 50//54
f 20//55 14//55 51//55
f 52//56 14//56 21//56
f 53//57 15//57 22//57
f 23//58 15//58 54//58
f 14//59 16//59 51//59
f 52//60 17//60 14//60
f 53//61 18//61 15//61
f 15//62 19//62 54//62
f 51//63 16//63 59//63 55//63
f 60//64 17//64 52//64 56//64
f 61//65 18//65 53//65 57//65
f 54//66 19//66 62//66 58//66
f 20//67 51//67 55//67 59//67
f 56//68 52//68 21//68 60//68
f 57//69 53//69 22//69 61//69
f 23//70 54//70 58//70 62//70
f 16//71 20//71 59//71
f 60//72 21//72 17//72
f 61//73 22//73 18//73
f 19//74 23//74 62//74
f 25//75 20//75 63//75 67//75
f 64//76 21//76 26//76 68//76
f 65//77 22//77 25//77 69//77
f 26//78 23//78 66//78 70//78
f 24//79 25//79 67//79 71//79
f 68//80 26//80 24//80 72//80
f 69//81 25//81 24//81 73//81
f 24//82 26//82 70//82 74//82
f 16//83 24//83 71//83 75//83
f 72//84 24//84 17//84 76//84
f 73//85 24//85 18//85 77//85
f 19//86 24//86 74//86 78//86
f 20//87 16//87 75//87 63//87
f 76//88 17//88 21//88 64//88
f 77//89 18//89 22//89 65//89
f 23//90 19//90 78//90 66//90
f 63//91 75//91 71//91 67//91
f 72//92 76//92 64//92 68//92
f 73//93 77//93 65//93 69//93
f 66//94 78//94 74//94 70//94
